<?xml version="1.0" encoding="utf-8"?>
<!-- Generator: Adobe Illustrator 18.1.0, SVG Export Plug-In . SVG Version: 6.00 Build 0)  -->
<svg version="1.1" id="Layer_1" xmlns="http://www.w3.org/2000/svg" xmlns:xlink="http://www.w3.org/1999/xlink" x="0px" y="0px"
	 viewBox="0 0 325.2 149.3" enable-background="new 0 0 325.2 149.3" xml:space="preserve">
<g>
	<path fill="#004990" d="M246.6,36H299v14.7h26.2v98.7H0V50.7h26.2V36h52.4l84-36L246.6,36z"/>
	<polygon fill="#FFFFFF" points="240.2,62.2 240.2,78.2 250.5,78.2 252.7,62.2 	"/>
	<path fill="#FFFFFF" d="M291.7,78.3c0-2.6,2.1-4.5,4.6-4.5c2.5,0,4.6,1.9,4.6,4.5c0,2.6-2.1,4.5-4.6,4.5
		C293.8,82.8,291.7,80.9,291.7,78.3L291.7,78.3z M296.2,82c2.1,0,3.7-1.6,3.7-3.8c0-2.1-1.6-3.8-3.7-3.8c-2.1,0-3.7,1.6-3.7,3.8
		C292.6,80.4,294.2,82,296.2,82L296.2,82z M295.3,80.9h-0.8v-5.2h2c1.2,0,1.8,0.5,1.8,1.5c0,0.9-0.6,1.3-1.3,1.4l1.5,2.3h-0.9
		l-1.4-2.3h-0.9V80.9L295.3,80.9z M296.2,78c0.7,0,1.3-0.1,1.3-0.9c0-0.6-0.6-0.8-1.1-0.8h-1.1V78H296.2L296.2,78z"/>
	<polygon fill="#FFFFFF" points="51.9,116.6 51.9,62.2 37,62.2 37,129.5 74.9,129.5 74.9,116.6 	"/>
	<polygon fill="#FFFFFF" points="201.5,129.5 236.9,129.5 236.9,116.6 216.5,116.6 216.5,108.1 236.9,108.1 236.9,95.6 216.5,95.6 
		216.5,87.1 236.9,87.1 236.9,74.1 201.5,74.1 201.5,74.2 	"/>
	<path fill="#FFFFFF" d="M123.8,122.4c0,3.9-3.2,7.1-7.1,7.1H88c-3.9,0-7.1-3.2-7.1-7.1V81.2c0-3.9,3.2-7.1,7.1-7.1h28.7
		c3.9,0,7.1,3.2,7.1,7.1V122.4z M108.9,87.1H95.8v29.4h13.1V87.1z"/>
	<g>
		<path fill="#FFFFFF" d="M178.1,74.1v42.4h-9V74.1h-13.1v42.4h-9V74.1h-14.9v48.3c0,3.9,3.2,7.1,7.1,7.1h17.6c3,0,5.7-2,5.7-5
			c0,3,2.8,5,5.7,5H186c3.9,0,7.1-3.2,7.1-7.1V74.1H178.1z"/>
	</g>
	<path fill="#FFFFFF" d="M289.1,108.6L289.1,108.6l-0.1-0.2c-0.1-0.1-0.1-0.2-0.2-0.3l-0.1-0.2c-2.4-4.7-7.6-8.7-16.1-12.1l-0.3-0.1
		c-1.7-0.7-6.8-2.7-7.4-5.9c-0.2-0.9,0.2-2.3,1.2-3.2c1.1-1.1,2.7-1.7,4.9-1.7c3.5,0,7.4,1.4,9.4,2.3c4.3,1.8,8.1,3.4,8.1,3.4
		l0.4,0.2V78.6l-0.1-0.1c-0.1-0.1-8.2-5.2-16.4-6.3c-0.9-0.1-1.9-0.1-2.8-0.1c-7.6,0-13.3,2.7-17,8.2c-3.1,4.4-3.5,11.5-0.8,16.7
		c3.4,5.9,8.9,8.4,14.2,10.8c2.2,1,4.5,2,6.6,3.3l0,0c2.4,1.4,3.6,3.6,3.1,5.6c-0.5,2-2.8,3.4-5.8,3.4c-0.4,0-0.8,0-1.2-0.1l-0.1,0
		c-5.6-0.8-17.1-5-17.2-5.1l-0.4-0.1V128l0.2,0.1c0.1,0,11.2,3.7,21,3.7h0c5.4,0,9.4-1.1,12-3.2c0.1,0,6.1-4.9,6.3-13.1
		C290.7,113.2,290.2,110.9,289.1,108.6z"/>
</g>
</svg>
